# xmcd
#
# Track frame offsets: 
#        183
#        12088
#        24873
#        36723
#        51385
#        63068
#        76183
#        90193
#        102995
#        116118
#        126758
#        147405
#        159600
#        171830
#        193880
#        205703
#        219678
#        234283
#        246703
#        257853
#
# Disc length: 3614 seconds
#
# Revision: 0
# Processed by: cddbd v1.5.1PL0 Copyright (c) Steve Scherf et al.
# Submitted via: ExactAudioCopy v0.95a5
#
DISCID=1c0e1c14
DTITLE=Freddy King - The Essential Freddy King
DYEAR=1993
DGENRE=Blues
TTITLE0=Hideaway
TTITLE1=Lonese
TTITLE2=San-Ho-Zay
TTITLE3=You've Got To Love Her With Feeling
TTITLE4=Teardrops On Your Letter
TTITLE5=Takin' Care Of Business
TTITLE6=Have You Ever Loved A Woman
TTITLE7=I Love The Woman
TTITLE8=Sen-Sa-Shun
TTITLE9=You Know That You Love Me
TTITLE10=Someday Afer A While
TTITLE11=High Rise
TTITLE12=The Welfare
TTITLE13=She Put The Whammy On Me
TTITLE14=I'm Tore Down
TTITLE15=Side Tracked
TTITLE16=The Stumble
TTITLE17=Double Eyed Whammy
TTITLE18=Surf Monkey
TTITLE19=King-A-Ling
EXTD=
EXTT0=
EXTT1=
EXTT2=
EXTT3=
EXTT4=
EXTT5=
EXTT6=
EXTT7=
EXTT8=
EXTT9=
EXTT10=
EXTT11=
EXTT12=
EXTT13=
EXTT14=
EXTT15=
EXTT16=
EXTT17=
EXTT18=
EXTT19=
PLAYORDER=
